<svg width="24" height="24" viewBox="0 0 24 24" fill="none" xmlns="http://www.w3.org/2000/svg">
<path d="M10.5 12.7273H5.5C4.83696 12.7273 4.20107 12.9907 3.73223 13.4595C3.26339 13.9284 3 14.5643 3 15.2273V16.4773" stroke="#737373" stroke-width="2" stroke-linecap="round" stroke-linejoin="round"/>
<path d="M8 10.0908C9.38071 10.0908 10.5 8.97153 10.5 7.59082C10.5 6.21011 9.38071 5.09082 8 5.09082C6.61929 5.09082 5.5 6.21011 5.5 7.59082C5.5 8.97153 6.61929 10.0908 8 10.0908Z" stroke="#737373" stroke-width="2" stroke-linecap="round" stroke-linejoin="round"/>
<path d="M21 19.4773V18.2273C21 17.5643 20.7366 16.9284 20.2678 16.4595C19.7989 15.9907 19.163 15.7273 18.5 15.7273H13.5C12.837 15.7273 12.2011 15.9907 11.7322 16.4595C11.2634 16.9284 11 17.5643 11 18.2273V19.4773" stroke="#737373" stroke-width="2" stroke-linecap="round" stroke-linejoin="round"/>
<path d="M16 13.0908C17.3807 13.0908 18.5 11.9715 18.5 10.5908C18.5 9.21011 17.3807 8.09082 16 8.09082C14.6193 8.09082 13.5 9.21011 13.5 10.5908C13.5 11.9715 14.6193 13.0908 16 13.0908Z" stroke="#737373" stroke-width="2" stroke-linecap="round" stroke-linejoin="round"/>
</svg>
