<svg width="24" height="24" stroke="#737373" fill="#737373" stroke-width="2" xmlns="http://www.w3.org/2000/svg">
    <rect x="3" y="2" width="8" height="8" fill="none" stroke-linejoin="round"/>
    <rect x="6" y="5" width="2" height="2" />
    <rect x="15" y="2" width="8" height="8" fill="none" stroke-linejoin="round"/>
    <rect x="6" y="17" width="2" height="2" />
    <rect x="3" y="14" width="8" height="8" fill="none" stroke-linejoin="round"/>
    <rect x="18" y="5" width="2" height="2" />
    <line x1="14" x2="16" y1="14" y2="14" />
    <line x1="18" x2="20" y1="14" y2="14" />
    <line x1="16" x2="18" y1="18" y2="18" />
    <line x1="14" x2="22" y1="16" y2="16"/>
    <line x1="14" x2="16" y1="18" y2="18" />
    <line x1="14" x2="16" y1="20" y2="20" />
    <line x1="16" x2="18" y1="22" y2="22" />
    <line x1="18" x2="20" y1="20" y2="20" />
    <line x1="20" x2="22" y1="22" y2="22" />
    <line x1="23" x2="23" y1="17" y2="21" />
</svg>