<svg width="24" height="24" viewBox="0 0 24 24" fill="none" xmlns="http://www.w3.org/2000/svg">
<path d="M17 19V18.1365C17 17.4734 16.7366 16.8375 16.2678 16.3687C15.7989 15.8999 15.163 15.6365 14.5 15.6365H9.5C8.83696 15.6365 8.20107 15.8999 7.73223 16.3687C7.26339 16.8375 7 17.4734 7 18.1365V19" stroke="#FDB916" stroke-width="2" stroke-linecap="round" stroke-linejoin="round"/>
<path d="M12 13C13.3807 13 14.5 11.8807 14.5 10.5C14.5 9.11929 13.3807 8 12 8C10.6193 8 9.5 9.11929 9.5 10.5C9.5 11.8807 10.6193 13 12 13Z" stroke="#FDB916" stroke-width="2" stroke-linecap="round" stroke-linejoin="round"/>
<path d="M4 6C4 4.89543 4.89543 4 6 4H18C19.1046 4 20 4.89543 20 6V18C20 19.1046 19.1046 20 18 20H6C4.89543 20 4 19.1046 4 18L4 6Z" stroke="#FDB916" stroke-width="2" stroke-linejoin="round"/>
</svg>
