<svg width="91" height="40" viewBox="0 0 91 40" fill="none" xmlns="http://www.w3.org/2000/svg">
<path fill-rule="evenodd" clip-rule="evenodd" d="M69.2391 12.6197C68.6178 11.5435 68.9865 10.1675 70.0627 9.54614L80.455 3.54614C81.5312 2.92482 82.9072 3.29354 83.5286 4.3697L87.8619 11.8753C88.4832 12.9514 88.1145 14.3275 87.0383 14.9488L76.646 20.9488C75.5699 21.5701 74.1938 21.2014 73.5725 20.1253L69.2391 12.6197ZM70.8127 10.8452C70.454 11.0523 70.3311 11.511 70.5382 11.8697L74.8715 19.3753C75.0786 19.734 75.5373 19.8569 75.896 19.6498L86.2883 13.6498C86.647 13.4427 86.77 12.984 86.5628 12.6253L82.2295 5.1197C82.0224 4.76098 81.5637 4.63807 81.205 4.84518L70.8127 10.8452Z" fill="white"/>
<path fill-rule="evenodd" clip-rule="evenodd" d="M84.9624 8.35314L71.972 15.8531L70.472 13.2551L83.4624 5.75506L84.9624 8.35314Z" fill="white"/>
<path d="M1.97314 22.022V34H6.46387C10.0498 34 12.1001 31.8003 12.1001 27.957C12.1001 24.1968 10.0249 22.022 6.46387 22.022H1.97314ZM4.11475 23.8232H6.18164C8.53076 23.8232 9.91699 25.3506 9.91699 27.9902C9.91699 30.688 8.56396 32.1987 6.18164 32.1987H4.11475V23.8232Z" fill="white"/>
<path d="M15.3872 23.4082C16.0679 23.4082 16.624 22.8687 16.624 22.188C16.624 21.5156 16.0679 20.9678 15.3872 20.9678C14.7148 20.9678 14.1587 21.5156 14.1587 22.188C14.1587 22.8687 14.7148 23.4082 15.3872 23.4082ZM14.3662 34H16.4165V24.9272H14.3662V34Z" fill="white"/>
<path d="M22.8745 37.4531C25.5225 37.4531 27.1992 36.1333 27.1992 34.0498V24.9272H25.2153V26.3799H25.0742C24.5762 25.3921 23.4971 24.7778 22.2603 24.7778C19.9443 24.7778 18.5083 26.5874 18.5083 29.3682C18.5083 32.0908 19.936 33.8672 22.2271 33.8672C23.4888 33.8672 24.4766 33.3359 24.9995 32.3564H25.1406V34.083C25.1406 35.2368 24.3188 35.9175 22.9077 35.9175C21.7788 35.9175 21.0483 35.5107 20.9155 34.8716H18.8486C19.0146 36.4321 20.542 37.4531 22.8745 37.4531ZM22.8745 32.2319C21.4385 32.2319 20.625 31.1196 20.625 29.3599C20.625 27.6084 21.4385 26.4961 22.8745 26.4961C24.3022 26.4961 25.1738 27.6084 25.1738 29.3682C25.1738 31.1196 24.3105 32.2319 22.8745 32.2319Z" fill="white"/>
<path d="M30.7769 23.4082C31.4575 23.4082 32.0137 22.8687 32.0137 22.188C32.0137 21.5156 31.4575 20.9678 30.7769 20.9678C30.1045 20.9678 29.5483 21.5156 29.5483 22.188C29.5483 22.8687 30.1045 23.4082 30.7769 23.4082ZM29.7559 34H31.8062V24.9272H29.7559V34Z" fill="white"/>
<path d="M46.9468 34V22.022H44.4399L40.8374 30.9121H40.688L37.0854 22.022H34.5786V34H36.5708V25.5083H36.687L39.999 33.6265H41.5264L44.8384 25.5083H44.9546V34H46.9468Z" fill="white"/>
<path d="M52.1846 34.1494C53.3716 34.1494 54.3677 33.6348 54.874 32.7549H55.0151V34H56.999V27.7993C56.999 25.8818 55.6875 24.7529 53.355 24.7529C51.1968 24.7529 49.6943 25.7656 49.5283 27.3511H51.4707C51.6616 26.7285 52.3091 26.3882 53.2554 26.3882C54.3677 26.3882 54.9653 26.8945 54.9653 27.7993V28.5796L52.6245 28.7207C50.4165 28.8452 49.1797 29.7998 49.1797 31.4268C49.1797 33.0869 50.4331 34.1494 52.1846 34.1494ZM52.7905 32.564C51.8774 32.564 51.2217 32.1074 51.2217 31.3271C51.2217 30.5718 51.7612 30.1484 52.915 30.0737L54.9653 29.9326V30.6714C54.9653 31.7505 54.0356 32.564 52.7905 32.564Z" fill="white"/>
<path d="M61.7637 28.646H61.6226V21.416H59.564V34H61.6226V30.8125L62.353 30.082L65.2666 34H67.7568L63.8887 28.8203L67.5078 24.9272H65.1172L61.7637 28.646Z" fill="white"/>
<path d="M68.7695 27.5171C68.7695 28.8784 69.5913 29.6753 71.3345 30.0737L72.9448 30.4473C73.8081 30.6465 74.1982 30.9785 74.1982 31.4932C74.1982 32.1821 73.4761 32.6553 72.4385 32.6553C71.4092 32.6553 70.77 32.2402 70.5708 31.5679H68.5371C68.6948 33.2031 70.1226 34.1826 72.3887 34.1826C74.6548 34.1826 76.2568 33.0288 76.2568 31.2939C76.2568 29.9575 75.4517 29.2188 73.7168 28.8203L72.1147 28.4634C71.2017 28.2476 70.77 27.9238 70.77 27.4092C70.77 26.7368 71.4756 26.2803 72.4136 26.2803C73.3765 26.2803 73.9824 26.6953 74.1318 27.3345H76.0659C75.9165 25.6992 74.5635 24.7529 72.4053 24.7529C70.2637 24.7529 68.7695 25.8901 68.7695 27.5171Z" fill="white"/>
<path d="M86.2427 24.9272H84.1841V30.2148C84.1841 31.5845 83.4536 32.4146 82.1172 32.4146C80.8887 32.4146 80.3159 31.7339 80.3159 30.3228V24.9272H78.2573V30.8208C78.2573 32.9458 79.4194 34.1826 81.4033 34.1826C82.7896 34.1826 83.6777 33.5933 84.1177 32.5557H84.2588V34H86.2427V24.9272Z" fill="white"/>
</svg>
